<svg width="400" height="200" viewBox="0 0 400 200" xmlns="http://www.w3.org/2000/svg">
  <!-- Pattern label -->
  <line x1="20" y1="20" x2="380" y2="20" stroke="#D1D5DB" stroke-width="1"/>
  <text x="20" y="35" font-family="Arial, sans-serif" font-size="14" font-weight="bold" fill="#1E3A5F">Pattern</text>
  
  <!-- PCB-like pattern -->
  <g id="pcb-pattern" stroke="#D1D5DB" stroke-width="1.5" fill="none" stroke-linecap="round" stroke-linejoin="round">
    <!-- Top track -->
    <path d="M 50 60 L 80 60 L 100 50 L 120 60 L 150 60"/>
    <path d="M 250 60 L 280 60 L 300 50 L 320 60 L 350 60"/>
    <circle cx="80" cy="60" r="3" fill="none"/>
    <circle cx="120" cy="60" r="3" fill="none"/>
    <circle cx="280" cy="60" r="3" fill="none"/>
    <circle cx="320" cy="60" r="3" fill="none"/>
    
    <!-- Second track -->
    <path d="M 50 80 L 70 80 L 90 75 L 110 80 L 130 80"/>
    <path d="M 270 80 L 290 80 L 310 75 L 330 80 L 350 80"/>
    <circle cx="70" cy="80" r="3" fill="none"/>
    <circle cx="110" cy="80" r="3" fill="none"/>
    <circle cx="290" cy="80" r="3" fill="none"/>
    <circle cx="330" cy="80" r="3" fill="none"/>
    
    <!-- Central hub -->
    <path d="M 180 70 L 200 60 L 220 70 L 200 80 Z"/>
    <circle cx="200" cy="70" r="4" fill="none"/>
    <path d="M 200 60 L 200 50"/>
    <path d="M 200 80 L 200 90"/>
    <circle cx="200" cy="50" r="3" fill="none"/>
    <circle cx="200" cy="90" r="3" fill="none"/>
    
    <!-- Connections from center -->
    <path d="M 200 50 L 180 50 L 160 45"/>
    <path d="M 200 50 L 220 50 L 240 45"/>
    <path d="M 200 90 L 180 90 L 160 95"/>
    <path d="M 200 90 L 220 90 L 240 95"/>
    <circle cx="160" cy="45" r="3" fill="none"/>
    <circle cx="240" cy="45" r="3" fill="none"/>
    <circle cx="160" cy="95" r="3" fill="none"/>
    <circle cx="240" cy="95" r="3" fill="none"/>
    
    <!-- Third track -->
    <path d="M 50 100 L 75 100 L 95 105 L 115 100 L 140 100"/>
    <path d="M 260 100 L 285 100 L 305 105 L 325 100 L 350 100"/>
    <circle cx="75" cy="100" r="3" fill="none"/>
    <circle cx="115" cy="100" r="3" fill="none"/>
    <circle cx="285" cy="100" r="3" fill="none"/>
    <circle cx="325" cy="100" r="3" fill="none"/>
    
    <!-- Fourth track -->
    <path d="M 50 120 L 85 120 L 105 115 L 125 120 L 150 120"/>
    <path d="M 250 120 L 285 120 L 305 115 L 325 120 L 350 120"/>
    <circle cx="85" cy="120" r="3" fill="none"/>
    <circle cx="125" cy="120" r="3" fill="none"/>
    <circle cx="285" cy="120" r="3" fill="none"/>
    <circle cx="325" cy="120" r="3" fill="none"/>
    
    <!-- Bottom track -->
    <path d="M 50 140 L 80 140 L 100 135 L 120 140 L 150 140"/>
    <path d="M 250 140 L 280 140 L 300 135 L 320 140 L 350 140"/>
    <circle cx="80" cy="140" r="3" fill="none"/>
    <circle cx="120" cy="140" r="3" fill="none"/>
    <circle cx="280" cy="140" r="3" fill="none"/>
    <circle cx="320" cy="140" r="3" fill="none"/>
    
    <!-- Vertical connections -->
    <line x1="100" y1="50" x2="100" y2="135"/>
    <line x1="300" y1="50" x2="300" y2="135"/>
    <circle cx="100" cy="92" r="3" fill="none"/>
    <circle cx="300" cy="92" r="3" fill="none"/>
    
    <!-- Additional horizontal connections -->
    <line x1="90" y1="75" x2="90" y2="105"/>
    <line x1="310" y1="75" x2="310" y2="105"/>
    <circle cx="90" cy="90" r="2" fill="none"/>
    <circle cx="310" cy="90" r="2" fill="none"/>
  </g>
</svg>

